<svg width="100" height="100" viewBox="0 0 100 100" fill="none" xmlns="http://www.w3.org/2000/svg">
<path d="M100 50C100 77.6142 77.6142 100 50 100C22.3858 100 0 77.6142 0 50C0 22.3858 22.3858 0 50 0C77.6142 0 100 22.3858 100 50Z" fill="#29B9E7"/>
<path d="M31.25 47.25C34.2836 47.25 36.75 44.7836 36.75 41.75C36.75 38.7164 34.2836 36.25 31.25 36.25C28.2164 36.25 25.75 38.7164 25.75 41.75C25.75 44.7836 28.2164 47.25 31.25 47.25ZM69.75 47.25C72.7836 47.25 75.25 44.7836 75.25 41.75C75.25 38.7164 72.7836 36.25 69.75 36.25C66.7164 36.25 64.25 38.7164 64.25 41.75C64.25 44.7836 66.7164 47.25 69.75 47.25ZM72.5 50H67C65.4875 50 64.1211 50.6102 63.1242 51.5984C66.5875 53.4977 69.0453 56.9266 69.5781 61H75.25C76.7711 61 78 59.7711 78 58.25V55.5C78 52.4664 75.5336 50 72.5 50ZM50.5 50C55.8195 50 60.125 45.6945 60.125 40.375C60.125 35.0555 55.8195 30.75 50.5 30.75C45.1805 30.75 40.875 35.0555 40.875 40.375C40.875 45.6945 45.1805 50 50.5 50ZM57.1 52.75H56.3867C54.5992 53.6094 52.6141 54.125 50.5 54.125C48.3859 54.125 46.4094 53.6094 44.6133 52.75H43.9C38.4344 52.75 34 57.1844 34 62.65V65.125C34 67.4023 35.8477 69.25 38.125 69.25H62.875C65.1523 69.25 67 67.4023 67 65.125V62.65C67 57.1844 62.5656 52.75 57.1 52.75ZM37.8758 51.5984C36.8789 50.6102 35.5125 50 34 50H28.5C25.4664 50 23 52.4664 23 55.5V58.25C23 59.7711 24.2289 61 25.75 61H31.4133C31.9547 56.9266 34.4125 53.4977 37.8758 51.5984Z" fill="white"/>
</svg>
