<svg width="100" height="100" viewBox="0 0 100 100" fill="none" xmlns="http://www.w3.org/2000/svg">
<circle cx="50" cy="50" r="50" fill="#5B72EE"/>
<path d="M58.75 50H42.25V55.75H58.75V50ZM66.3984 36.4336L57.9852 27.6289C57.5984 27.2246 57.0742 27 56.5242 27H56V38.5H67V37.952C67 37.3859 66.7852 36.8379 66.3984 36.4336ZM53.25 39.2188V27H36.0625C34.9195 27 34 27.9613 34 29.1562V70.8438C34 72.0387 34.9195 73 36.0625 73H64.9375C66.0805 73 67 72.0387 67 70.8438V41.375H55.3125C54.1781 41.375 53.25 40.4047 53.25 39.2188ZM39.5 33.4688C39.5 33.0716 39.8077 32.75 40.1875 32.75H47.0625C47.4423 32.75 47.75 33.0716 47.75 33.4688V34.9062C47.75 35.3034 47.4423 35.625 47.0625 35.625H40.1875C39.8077 35.625 39.5 35.3034 39.5 34.9062V33.4688ZM39.5 39.2188C39.5 38.8216 39.8077 38.5 40.1875 38.5H47.0625C47.4423 38.5 47.75 38.8216 47.75 39.2188V40.6562C47.75 41.0534 47.4423 41.375 47.0625 41.375H40.1875C39.8077 41.375 39.5 41.0534 39.5 40.6562V39.2188ZM61.5 66.5312C61.5 66.9284 61.1923 67.25 60.8125 67.25H53.9375C53.5577 67.25 53.25 66.9284 53.25 66.5312V65.0938C53.25 64.6966 53.5577 64.375 53.9375 64.375H60.8125C61.1923 64.375 61.5 64.6966 61.5 65.0938V66.5312ZM61.5 48.5625V57.1875C61.5 57.9817 60.8847 58.625 60.125 58.625H40.875C40.1153 58.625 39.5 57.9817 39.5 57.1875V48.5625C39.5 47.7683 40.1153 47.125 40.875 47.125H60.125C60.8847 47.125 61.5 47.7683 61.5 48.5625Z" fill="white"/>
</svg>
