<svg width="100" height="100" viewBox="0 0 100 100" fill="none" xmlns="http://www.w3.org/2000/svg">
<circle cx="50" cy="50" r="50" fill="#F48C06"/>
<path d="M38 26C37.0532 26 36.2857 26.7675 36.2857 27.7143V31.1429H39.7142V27.7143C39.7142 26.7675 38.9467 26 38 26Z" fill="#F5F5FC"/>
<path d="M62 26C61.0532 26 60.2856 26.7675 60.2856 27.7143V31.1429H63.7142V27.7143C63.7143 26.7675 62.9468 26 62 26Z" fill="#F5F5FC"/>
<path d="M68.8571 31.1428H63.7143V38C63.7143 38.9468 62.9468 39.7143 62 39.7143C61.0532 39.7143 60.2857 38.9468 60.2857 38V31.1428H39.7142V38C39.7142 38.9468 38.9467 39.7143 37.9999 39.7143C37.0531 39.7143 36.2856 38.9468 36.2856 38V31.1428H31.1429C28.3025 31.1428 26 33.4454 26 36.2857V68.8571C26 71.6974 28.3025 74 31.1429 74H68.8571C71.6975 74 74 71.6974 74 68.8571V36.2857C74 33.4454 71.6975 31.1428 68.8571 31.1428ZM70.5714 68.8571C70.5714 69.8039 69.8039 70.5714 68.857 70.5714H31.1429C30.196 70.5714 29.4285 69.8039 29.4285 68.8571V46.5714H70.5714V68.8571Z" fill="#F5F5FC"/>
<path d="M39.7142 49.9999H36.2857C35.3389 49.9999 34.5714 50.7674 34.5714 51.7142C34.5714 52.661 35.3389 53.4285 36.2857 53.4285H39.7142C40.661 53.4285 41.4285 52.661 41.4285 51.7142C41.4285 50.7674 40.661 49.9999 39.7142 49.9999Z" fill="#F5F5FC"/>
<path d="M51.7143 49.9999H48.2857C47.3389 49.9999 46.5714 50.7674 46.5714 51.7142C46.5714 52.661 47.3389 53.4285 48.2857 53.4285H51.7143C52.6611 53.4285 53.4286 52.661 53.4286 51.7142C53.4286 50.7674 52.6611 49.9999 51.7143 49.9999Z" fill="#F5F5FC"/>
<path d="M63.7143 49.9999H60.2857C59.3389 49.9999 58.5714 50.7674 58.5714 51.7142C58.5714 52.661 59.3389 53.4285 60.2857 53.4285H63.7143C64.6611 53.4285 65.4286 52.661 65.4286 51.7142C65.4286 50.7674 64.661 49.9999 63.7143 49.9999Z" fill="#F5F5FC"/>
<path d="M39.7142 56.8571H36.2857C35.3389 56.8571 34.5714 57.6246 34.5714 58.5714C34.5714 59.5182 35.3389 60.2857 36.2857 60.2857H39.7142C40.661 60.2857 41.4285 59.5182 41.4285 58.5714C41.4285 57.6246 40.661 56.8571 39.7142 56.8571Z" fill="#F5F5FC"/>
<path d="M51.7143 56.8571H48.2857C47.3389 56.8571 46.5714 57.6246 46.5714 58.5714C46.5714 59.5182 47.3389 60.2857 48.2857 60.2857H51.7143C52.6611 60.2857 53.4286 59.5182 53.4286 58.5714C53.4286 57.6246 52.6611 56.8571 51.7143 56.8571Z" fill="#F5F5FC"/>
<path d="M63.7143 56.8571H60.2857C59.3389 56.8571 58.5714 57.6246 58.5714 58.5714C58.5714 59.5182 59.3389 60.2857 60.2857 60.2857H63.7143C64.6611 60.2857 65.4286 59.5182 65.4286 58.5714C65.4285 57.6246 64.661 56.8571 63.7143 56.8571Z" fill="#F5F5FC"/>
<path d="M39.7142 63.7142H36.2857C35.3389 63.7142 34.5714 64.4817 34.5714 65.4286C34.5714 66.3754 35.3389 67.1428 36.2857 67.1428H39.7142C40.661 67.1428 41.4285 66.3753 41.4285 65.4284C41.4285 64.4816 40.661 63.7142 39.7142 63.7142Z" fill="#F5F5FC"/>
<path d="M51.7143 63.7142H48.2857C47.3389 63.7142 46.5714 64.4817 46.5714 65.4285C46.5714 66.3754 47.3389 67.1429 48.2857 67.1429H51.7143C52.6611 67.1429 53.4286 66.3754 53.4286 65.4285C53.4286 64.4817 52.6611 63.7142 51.7143 63.7142Z" fill="#F5F5FC"/>
<path d="M63.7143 63.7142H60.2857C59.3389 63.7142 58.5714 64.4817 58.5714 65.4285C58.5714 66.3754 59.3389 67.1429 60.2857 67.1429H63.7143C64.6611 67.1429 65.4286 66.3754 65.4286 65.4285C65.4286 64.4817 64.661 63.7142 63.7143 63.7142Z" fill="#F5F5FC"/>
</svg>
